<!-- src\public\EVOFIX.svg
-->
<?xml version="1.0" encoding="UTF-8"?>
<svg id="Layer_1" data-name="Layer 1" xmlns="http://www.w3.org/2000/svg" viewBox="0 0 1486.17 805.54">
  <defs>
    <style>
      .cls-1 {
        fill: #fff;
      }

      .cls-2 {
        fill: #008422;
      }

      .cls-3 {
        fill: #4a6cf7;
      }
    </style>
  </defs>
  <path d="m980.66,1.52c-.06.07-.12.15-.18.23.09-.05.18-.09.27-.14,0,0-.09-.09-.09-.09Z"/>
  <path d="m982.2,0c-.51.51-1.03,1.01-1.54,1.52,0,0,.09.09.09.09.51-.51,1.02-1.03,1.52-1.54l-.07-.07Z"/>
  <path className="cls-3" d="m1484.58,407.74c-1.73-.52-3.71-.21-5.58-.21-25.02.06-50.04.17-75.05.18-6.56,0-13.12-.29-19.68-.42-5.11-.1-8.61,2.1-11.57,6.47-8.25,12.18-17.07,23.97-25.48,36.05-2.52,3.62-5.27,5.64-9.96,5.62-27.55-.16-55.11-.12-82.66.01-4.55.02-7.55-1.7-10.14-5.38-14.97-21.24-30.01-42.44-45.27-63.47-3.12-4.3-2.9-7.26.22-11.54,14.75-20.24,29.23-40.69,43.54-61.24,3.58-5.14,7.71-7.32,14.05-7.25,25.99.3,51.98.35,77.96.02,6.48-.08,10.37,2.34,13.82,7.5,7.31,10.92,15.38,21.35,22.61,32.32,3.84,5.83,8.24,8.2,15.41,8.1,29.74-.41,59.49-.12,89.24-.22,3.29-.01,6.58-.88,9.87-1.36-1.43-3.02-2.5-6.27-4.33-9.02-26.47-39.93-53.18-79.69-79.43-119.76-3.93-6-8.03-8.25-15.16-8.22-59.18.29-118.36.43-177.54-.04-10.5-.08-17.06,2.79-22.86,11.88-15.17,23.74-31.5,46.73-47.31,70.06-2.92,4.32-5.94,7.26-11.97,7.23-57.93-.21-115.85-.07-173.78-.12-7.86,0-8.01-.32-5.06-8.02,14.19-37.15,28.5-74.24,42.63-111.41,3.88-10.2,7.29-20.58,10.91-30.87h0c.16-.6.31-1.21.47-1.81-.21.56-.42,1.12-.62,1.68,0,0,.04.04.08.07l-.08-.07c-1.59,1.87-3.44,3.57-4.72,5.63-29.26,47.44-58.44,94.92-87.66,142.38-17.23,28-34.54,55.95-51.72,83.98-4.84,7.91-4.53,8.35,4.96,8.39,27.01.13,54.01.01,81.02.01-2.67,2.91-4.21,4.76-5.93,6.43-33.63,32.79-67.33,65.49-100.9,98.34-39.16,38.33-78.18,76.8-117.3,115.17-25.26,24.77-50.67,49.39-75.85,74.24-13.47,13.3-26.59,26.95-39.87,40.45,1.8-.89,3.73-1.61,5.3-2.8,57.85-43.91,115.68-87.85,173.49-131.81,57.57-43.77,115.15-87.54,172.65-131.4,5.38-4.11,10.71-6.65,17.89-6.61,50.72.3,101.45.28,152.17.03,6.75-.03,10.77,2.28,14.47,7.85,16.48,24.76,33.53,49.15,50.06,73.87,3.51,5.25,7.39,7.35,13.8,7.32,61.06-.22,122.12-.23,183.17.06,7.18.03,11.33-2.4,15.2-8.3,26.67-40.55,53.69-80.88,80.6-121.28,1.21-1.82,2.65-3.58,3.4-5.59.3-.81-.73-2.94-1.54-3.18Z"/>
  <path className="cls-1" d="m716.93,465.66c-12.33,32.83-24.72,65.63-37.08,98.44-6.36,16.87-12.69,33.75-19.04,50.63,2.51-1.38,3.86-3.33,5.1-5.36,41.47-68.22,82.95-136.44,124.36-204.7,1.73-2.86,2.91-6.06,4.34-9.1-3.5-.7-6.99-1.97-10.5-1.99-25.36,0-50.72-.12-76.08-.23-1.69,0-3.38-.88-5.07-1.36.89-1.54,1.51-3.33,2.71-4.58,9.57-9.91,19.17-19.78,28.9-29.53,97.96-98.22,195.95-196.41,293.9-294.63,1.88-1.88,3.44-4.08,5.12-6.15-2.59,1.37-5.37,2.5-7.69,4.24-37.61,28.11-75.14,56.33-112.73,84.47-67.67,50.65-135.42,101.18-202.96,152-6.59,4.96-13.06,7.44-21.4,7.39-49.78-.29-99.56-.29-149.34.06-7.67.05-15.8,1.21-22.88,3.98-18.54,7.26-28.34,22.02-31.07,41.4-.68,4.81-2.4,6.66-7.03,6.33-1.86-.13-3.75.18-5.63.18-31.31.04-62.62-.03-93.93.16-5.34.03-9.6-1.43-13.62-4.94-16.27-14.2-32.84-28.05-48.98-42.39-3.9-3.46-7.1-3.87-11.74-2.07-40.85,15.86-81.74,31.62-122.71,47.16-5.29,2.01-7.23,4.97-7.06,10.45.29,9.7.04,19.42.1,29.12.05,9.21.06,9.3,9,12.74,38.55,14.86,77.24,29.37,115.6,44.71,8.6,3.44,14.29,2.27,20.88-3.75,14.09-12.86,28.83-25.01,43.28-37.48,4.1-3.54,8.29-6.14,14.2-6.1,32.87.24,65.75.22,98.62.1,5.46-.02,8.09,1.2,9.37,7.4,6.34,30.57,24.29,44.68,55.61,44.73,18.47.03,36.95.02,55.42.02,37.88,0,75.77-.01,113.65.05,9.47.01,9.56.16,6.38,8.61Z"/>
  <path className="cls-1" d="m150.34,677.42c-28.08.38-56.16.55-84.24.92-4.95.06-7.1-1.76-7.36-6.31-.04-9.06-.09-18.13-.09-27.19,0-8.05.18-8.21,8.13-8.22,23.9-.03,47.79-.14,71.69.08,5.73.05,8.53-1.26,8.22-7.71-.05-1.04-.08-2.07-.12-3.11,0-4.06-.06-8.13-.09-12.19.03-4.06.09-8.13.09-12.19.03-1.04.07-2.07.12-3.11.31-6.44-2.49-7.76-8.22-7.71-23.89.22-47.79.11-71.69.08-7.96-.01-8.14-.17-8.13-8.22,0-9.06.05-18.13.09-27.19.26-4.55,2.42-6.38,7.36-6.31,28.08.37,56.16.54,84.24.92,6.17.08,7.93-1.21,8.11-7.46.34-11.25.75-22.5.71-33.75,0-1.57-2.28-4.37-3.7-4.5-6.57-.63-13.22-.65-19.84-.66-41.6-.04-83.19-.02-124.79-.02-10.33,0-10.68.19-10.71,10.84-.01,4.26,0,8.52-.01,12.77-.08.67-.12,1.41-.11,2.22.04,7.07.07,14.13.09,21.2,0,17.98,0,35.95,0,53.93,0,3.05,0,6.1,0,9.15,0,3.05,0,6.1,0,9.15,0,17.98-.01,35.95,0,53.93-.02,7.07-.04,14.13-.09,21.2,0,.82.03,1.55.11,2.22,0,4.26,0,8.52.01,12.77.03,10.64.39,10.83,10.71,10.84,41.6,0,83.19.02,124.79-.02,6.62,0,13.26-.03,19.84-.66,1.42-.14,3.69-2.93,3.7-4.5.04-11.25-.37-22.5-.71-33.75-.19-6.26-1.94-7.55-8.11-7.46Z"/>
  <g>
    <path className="cls-1" d="m865.92,694.03c0-33.13-.07-66.25.04-99.38.04-11.74.43-11.95,11.81-11.95,45.87,0,91.73-.03,137.6.02,7.3,0,14.62.03,21.87.72,1.57.15,4.07,3.23,4.08,4.96.04,12.4-.41,24.81-.78,37.21-.21,6.9-2.14,8.32-8.95,8.23-30.96-.42-61.93-.61-92.9-1.01-5.92-.08-8.21,2.29-8.15,8.29.09,9-.71,18-.89,27-.21,10.11,1.08,11.27,11.13,11.27,25.62-.01,51.23-.02,76.85-.01,8.92,0,9.76.78,9.8,9.46.05,10.72-.38,21.45.13,32.14.34,7.1-2.75,8.55-9.07,8.5-26.35-.24-52.7-.12-79.05-.09-8.77.01-8.97.19-8.97,9.06,0,18.27.19,36.53.16,54.8-.02,10.61-1.69,12.15-12.41,12.16-14.64.02-29.28-.23-43.91.11-6.4.15-8.53-2.14-8.49-8.47.21-34.34.1-68.69.11-103.03Z"/>
    <path className="cls-2" d="m1226.07,631.43c4.04-.05,8.08-.1,12.12-.16,10.41-.14,20.61-1.62,27.75,7.54,4.74,6.09,6.22,6.05,10.69-.3,10.23-14.55,20.7-28.96,30.07-44.05,5.23-8.43,11.19-12.31,21.3-11.82,9.54.46,19.09.46,28.64.41,1.32,0,24,.22,23.64,1.21-.7,1.94-.98,4.18-2.15,5.77-27.47,37.55-55.01,75.05-82.59,112.52-6.2,8.42-12.6,16.7-18.88,25.07-6.2,8.27-9.08,8.1-15.29-.26-19.46-26.21-39.02-52.34-58.63-78.44-2.33-3.1-5.36-5.66-7.8-8.69-1.29-1.61-2-3.68-2.98-5.55,2.1-.94,4.18-2.62,6.31-2.69,9.26-.3,18.53-.45,27.8-.57Z"/>
    <path className="cls-1" d="m1068.17,742.3c0-18.02.22-36.05-.12-54.07-.12-6.45,2.55-8.81,8.56-8.79,15.86.05,31.72.04,47.58-.04,5.78-.03,8.48,2.57,8.44,8.41-.17,26.52-.27,53.05-.31,79.57-.02,9.97,0,19.95.36,29.92.22,6-2.17,8.26-8.15,8.18-16.34-.22-32.7-.25-49.04.04-5.79.1-7.65-2.04-7.58-7.68.24-18.51.09-37.02.09-55.53.05,0,.1,0,.15,0Z"/>
    <path className="cls-1" d="m1188.23,805.34c-9.51.01-19.01.06-28.52,0-6.05-.04-7.19-1.74-3.79-6.85,5.25-7.89,11.11-15.38,16.66-23.07,10.6-14.7,21.42-29.25,31.87-44.05,5.1-7.22,10.04-14.54,14.95-21.89,4.14-6.2,6.84-4.29,11.04,1.11,8.95,11.53,17.5,23.38,26.24,35.08,3.19,4.27,2.94,8.03-.25,12.54-7.5,10.59-14.76,21.35-21.74,32.29-5.47,8.58-11.15,15.13-22.14,14.97-8.11-.12-16.21-.13-24.32-.12Z"/>
    <path className="cls-1" d="m1351.11,805.34c9.51.01,19.01.06,28.52,0,6.05-.04,7.19-1.74,3.79-6.85-5.25-7.89-11.11-15.38-16.66-23.07-10.6-14.7-21.42-29.25-31.87-44.05-5.1-7.22-10.04-14.54-14.95-21.89-4.14-6.2-6.84-4.29-11.04,1.11-8.95,11.53-17.5,23.38-26.24,35.08-3.19,4.27-2.94,8.03.25,12.54,7.5,10.59,14.76,21.35,21.74,32.29,5.47,8.58,11.15,15.13,22.14,14.97,8.11-.12,16.21-.13,24.32-.12Z"/>
    <path className="cls-1" d="m1100.9,582.76c8.53,0,17.07.09,25.6-.04,4.1-.06,6.38,1.12,6.3,5.77-.23,12.65-.19,25.31-.22,37.97-.01,4.84-1.48,7.82-7.22,7.6-15.82-.59-31.65-.89-47.48-1.22-9.21-.19-9.89-.85-9.87-10.14.03-9.98.02-19.96-.02-29.94-.04-9.9,0-9.99,10.22-10.03,7.56-.04,15.12,0,22.68,0v.03Z"/>
  </g>
  <g>
    <path className="cls-1" d="m208.37,500.64c8.92,0,17.85.13,26.77-.05,4.58-.09,7.83,1.58,10.3,5.42,8.18,12.67,16.57,25.2,24.72,37.88,4.23,6.59,1.7,136.88-2.88,143.07-8.42,11.37-16.91,22.69-25.21,34.15-2.44,3.37-3.86,2.81-6-.26-16.99-24.35-31.87-174.72-49.01-198.96-3.03-4.28-6.65-8.15-9.63-12.46-1.35-1.94-1.79-4.51-2.65-6.79,2.27-.64,4.54-1.78,6.82-1.83,8.92-.22,17.84-.09,26.77-.09v-.08Z"/>
    <path className="cls-1" d="m353.49,500.64c-8.92,0-17.85.13-26.77-.05-4.58-.09-7.83,1.58-10.3,5.42-8.18,12.67-16.57,25.2-24.72,37.88-4.23,6.59-1.7,136.88,2.88,143.07,8.42,11.37,16.91,22.69,25.21,34.15,2.44,3.37,3.86,2.81,6-.26,16.99-24.35,31.87-174.72,49.01-198.96,3.03-4.28,6.65-8.15,9.63-12.46,1.35-1.94,1.79-4.51,2.65-6.79-2.27-.64-4.54-1.78-6.82-1.83-8.92-.22-17.84-.09-26.77-.09v-.08Z"/>
    <path className="cls-1" d="m497.02,500.53c16.2-.1,32.4.02,48.59-.39,8.53-.21,14.62,2.73,18.97,10.24,16.81,29,33.8,57.89,50.81,86.76,4.02,6.82,3.79,13.35-.08,20.12-16.46,28.87-32.89,57.75-49.2,86.71-4.2,7.45-10.16,10.79-18.74,10.8-33.24.02-66.49.27-99.73.6-7.89.08-13.65-2.97-17.6-9.75-17.03-29.2-34.1-58.37-51.15-87.56-3.6-6.17-3.76-12.53-.29-18.67,16.91-29.92,33.91-59.79,50.97-89.62,3.53-6.18,9.09-8.99,16.29-8.98,17.05.02,34.1-.17,51.14-.27Zm-.22,38.38c-37.59-.15-68.73,31.19-68.64,69.08.09,37.87,30.98,68.59,69.08,68.7,37.96.11,68.8-30.66,68.87-68.69.06-38.55-30.41-68.93-69.3-69.09Z"/>
  </g>
</svg>